<?xml version="1.0" encoding="UTF-8"?>
<svg id="_レイヤー_1" data-name="レイヤー 1" xmlns="http://www.w3.org/2000/svg" width="54.992126" height="54.992126" viewBox="0 0 54.992126 54.992126">
  <defs>
    <style>
      .cls-1 {
        fill: #fff;
      }

      .cls-2 {
        fill: none;
        stroke: #fff;
        stroke-miterlimit: 10;
        stroke-width: .992126px;
      }
    </style>
  </defs>
  <path class="cls-1" d="m34.7893018,18.4668052c-.9538323.0000007-1.7270621.7732339-1.7270621,1.7270648s.7732326,1.7270635,1.7270648,1.7270628c.9538295-.0000007,1.7270621-.7732332,1.7270621-1.7270642s-.7732326-1.7270635-1.7270648-1.7270635h0Zm6.6204116,3.482912c-.027989-1.1941234-.2516373-2.375572-.6620398-3.4973045-.3659485-.9597685-.9355143-1.8288474-1.6694947-2.547419-.7126703-.7377069-1.5837764-1.3036794-2.5474197-1.6551029-1.1187685-.4228992-2.3015334-.6516644-3.4973045-.6764333-1.5255736-.0863528-2.0149085-.0863528-5.9295867-.0863528s-4.4040118,0-5.9295853.0863531c-1.1957725.024769-2.3785367.2535338-3.4973045.6764333-.9618644.3549815-1.8322218.9204681-2.547419,1.6551025-.7377069.7126696-1.3036794,1.5837744-1.6551029,2.547419-.4228992,1.1187678-.6516644,2.301532-.6764333,3.4973045-.0863528,1.5255722-.0863528,2.0149071-.0863528,5.9295853s0,4.4040118.0863531,5.929584c.024769,1.1957711.2535338,2.378536.6764333,3.4973045.3514235.9636432.9173956,1.8347494,1.6551025,2.5474197.7151972.7346338,1.5855546,1.3001204,2.547419,1.6551022,1.1187678.4228982,2.301532.6516633,3.4973045.6764323,1.5255722.0863552,2.0149071.0863552,5.9295853.0863552s4.4040118,0,5.929584-.0863524c1.1957711-.024769,2.378536-.2535341,3.4973045-.6764323.9636432-.3514242,1.8347494-.9173967,2.5474197-1.6551022.7372279-.7158958,1.3072961-1.5857419,1.6694947-2.5474197.4104025-1.1217332.6340508-2.3031804.6620398-3.4973045,0-1.5255722.0863524-2.0149071.0863524-5.9295853s0-4.4040131-.0863497-5.9295867Zm-2.5905973,11.6864645c-.010478.9135755-.1759386,1.8187455-.4893349,2.6769497-.2297946.6263398-.5988889,1.1922821-1.0794148,1.6551022-.4668142.4756726-1.0315953.8440066-1.6551022,1.0794148-.8582042.3133964-1.7633742.4788569-2.6769497.4893349-1.4392198.0719599-1.9717309.0863524-5.7568791.0863524s-4.3176593,0-5.7568791-.0863524c-.9486029.0177608-1.8931567-.1283029-2.7920865-.4317648-.5961514-.2474345-1.1350318-.6148544-1.5831416-1.0794148-.477693-.4623507-.8421694-1.0287679-1.0650223-1.6551022-.3513768-.8705077-.5462651-1.7962275-.5756881-2.734517,0-1.4392198-.0863531-1.9717309-.0863531-5.7568791s0-4.3176593.0863531-5.7568791c.006451-.9339736.1769518-1.8595506.5037268-2.7345177.2533701-.6074797.6422737-1.1489913,1.1369849-1.5831444.4372543-.4948498.9776446-.8878608,1.5831416-1.1513761.8772778-.3165653,1.8018995-.4820237,2.7345177-.4893346,1.4392198,0,1.9717309-.0863531,5.7568791-.0863531s4.3176593,0,5.7568791.0863531c.9135755.0104784,1.8187455.1759396,2.6769497.4893346.6540241.2427281,1.2410295.6373538,1.7126723,1.1513761.4716346.4420974.8401607.9826022,1.0794148,1.5831416.3198721.8763898.4854314,1.8015866.4893349,2.7345177.0719599,1.4392198.0863524,1.9717309.0863524,5.7568791s-.0143925,4.3176593-.0863552,5.7568791Zm-11.7152482-13.1400768c-4.0776201.0079484-7.3767405,3.319955-7.3687921,7.3975751.0079477,4.0776201,3.3199543,7.3767412,7.3975744,7.3687914,4.0719954-.0079361,7.3687983-3.3111652,7.3688065-7.3831688.00798-4.0696703-3.2846709-7.3752602-7.3543426-7.3832395-.0144159-.0000281-.0288303-.0000144-.0432462.0000419Zm0,12.1757994c-2.6468813,0-4.7926018-2.1457205-4.7926018-4.7926018s2.1457205-4.7926018,4.7926018-4.7926018,4.7926018,2.1457205,4.7926018,4.7926018h0c0,2.6468813-2.1457205,4.7926018-4.7926018,4.7926018Z"/>
  <circle class="cls-2" cx="27.496063" cy="27.496063" r="27"/>
</svg>