<?xml version="1.0" encoding="utf-8"?>
<!-- Generator: Adobe Illustrator 27.7.0, SVG Export Plug-In . SVG Version: 6.00 Build 0)  -->
<svg version="1.1" id="レイヤー_1" xmlns="http://www.w3.org/2000/svg" xmlns:xlink="http://www.w3.org/1999/xlink" x="0px"
	 y="0px" viewBox="0 0 263 81" style="enable-background:new 0 0 263 81;" xml:space="preserve">
<style type="text/css">
	.st0{fill:#FFFFFF;}
	.st1{fill:none;}
</style>
<g>
	<g>
		<g>
			<path d="M206.05,51.69c0.41-0.27,0.71-0.61,1-0.94c0.7-0.8,1.48-1.51,2.23-2.25c1.77-1.73,3.36-3.62,4.97-5.5
				c0.46-0.54,0.65-1.08,0.39-1.75c-0.01-0.02-0.01-0.04-0.01-0.05c-0.3-0.89-0.13-1.03,0.79-1.27c0.02,0,0.04-0.01,0.06-0.01
				c1.7,0,3.06-0.87,4.43-1.72c1.81-1.13,3.64-2.23,5.47-3.34c0.47-0.29,0.96-0.54,1.5-0.67c0.61-0.14,1.17-0.07,1.66,0.33
				c0.35,0.28,0.41,0.53,0.19,0.94c-0.22,0.41-0.56,0.7-0.93,0.98c-0.97,0.73-2.04,1.29-3.1,1.88c-1.49,0.83-2.98,1.65-4.47,2.47
				c-0.26,0.15-0.53,0.28-0.76,0.49c0.14,0.33,0.41,0.45,0.7,0.56c0.86,0.34,1.77,0.41,2.67,0.54c2.36,0.34,4.55-0.19,6.67-1.19
				c0.63-0.3,1.27-0.59,1.94-0.81c0.29-0.1,0.48-0.28,0.63-0.53c0.19-0.33,0.35-0.67,0.49-1.02c0.54-1.35,1.48-2.3,2.84-2.83
				c1.69-0.66,3.44-1.03,5.26-1.07c0.4-0.01,0.8,0.03,1.13,0.29c0.83,0.63,0.81,2.02-0.04,2.65c-0.23,0.17-0.48,0.31-0.74,0.42
				c-1.28,0.52-2.54,1.11-3.93,1.29c-0.64,0.08-1.28,0.12-1.92,0.17c-0.4,0.03-0.79,0.08-1.13,0.33c-0.45,0.34-0.51,0.73-0.13,1.15
				c0.64,0.73,1.5,0.99,2.44,1.04c1.81,0.09,3.6-0.04,5.38-0.37c1.04-0.19,2.09-0.36,3.1-0.69c1.13-0.38,2.24-0.82,3.26-1.45
				c0.47-0.29,0.95-0.54,1.49-0.69c0.59-0.16,1.27,0.21,1.45,0.79c0.07,0.23-0.07,0.35-0.22,0.47c-0.5,0.38-1.07,0.64-1.63,0.91
				c-1.76,0.82-3.61,1.35-5.5,1.79c-1.61,0.38-3.25,0.54-4.9,0.59c-0.85,0.03-1.7,0.09-2.55,0.11c-0.42,0.01-0.84,0.01-1.25-0.05
				c-1.16-0.16-2.06-0.73-2.61-1.77c-0.11-0.21-0.22-0.22-0.39-0.11c-0.19,0.13-0.38,0.24-0.58,0.36c-2.27,1.4-4.74,2.18-7.42,2.21
				c-1.27,0.02-2.53-0.21-3.75-0.59c-0.76-0.24-1.52-0.48-2.27-0.74c-0.52-0.18-0.95-0.08-1.37,0.25c-1.11,0.88-2.11,1.89-3.17,2.82
				c-2.1,1.86-3.94,3.95-5.83,6.02c-0.88,0.96-1.64,2.02-2.46,3.03c-0.28,0.35-0.57,0.71-0.91,1c-0.42,0.35-0.87,0.4-1.25,0.15
				c-0.37-0.24-0.52-0.58-0.43-1.02c0.09-0.42,0.23-0.83,0.43-1.22c1.73-3.43,3.35-6.91,5.11-10.32c0.08-0.15,0.15-0.31,0.21-0.46
				c0.03-0.08,0.1-0.18,0.01-0.26c-0.09-0.08-0.21-0.1-0.32-0.05c-0.15,0.07-0.28,0.2-0.44,0.25c-1.1,0.33-2.15,0.84-3.31,0.99
				c-0.78,0.1-1.55,0.12-2.32-0.05c-0.94-0.2-1.48-0.8-1.57-1.75c-0.08-0.84-0.04-1.69,0.09-2.53c0.03-0.21,0.18-0.49-0.02-0.63
				c-0.19-0.13-0.43,0.05-0.63,0.15c-1.04,0.51-1.97,1.19-2.97,1.77c-1.54,0.89-3.05,1.83-4.64,2.63c-0.57,0.28-1.17,0.42-1.8,0.47
				c-0.95,0.08-1.75-0.18-2.41-0.88c-0.38-0.4-0.62-0.41-1.02-0.05c-0.79,0.72-1.76,1.18-2.66,1.72c-1.38,0.82-2.79,1.6-4.28,2.22
				c-1.09,0.46-2.2,0.92-3.42,0.95c-1.27,0.03-2.15-0.7-2.39-1.95c-0.23-1.18-0.01-2.32,0.29-3.45c0.62-2.28,1.56-4.44,2.71-6.49
				c1.71-3.04,3.61-5.96,5.59-8.83c0.77-1.12,1.53-2.24,2.28-3.37c0.11-0.16,0.2-0.32,0.29-0.49c0.27-0.48,0.23-0.57-0.33-0.59
				c-0.99-0.03-1.97-0.05-2.96-0.05c-2.16,0-4.32,0.03-6.48,0.03c-0.31,0-0.52,0.06-0.65,0.39c-1.97,4.67-4.53,9-7.5,13.11
				c-2.39,3.3-4.93,6.48-7.62,9.54c-2.37,2.7-4.88,5.26-7.57,7.63c-2.58,2.27-5.26,4.44-8.29,6.1c-1.91,1.05-3.85,2.02-6,2.52
				c-1.09,0.25-2.2,0.42-3.32,0.32c-2.31-0.21-4.15-1.23-5.44-3.16c-1-1.5-1.64-3.17-2.19-4.87c-0.09-0.28-0.13-0.59-0.19-0.88
				c-0.05-0.24-0.1-0.49-0.25-0.68c-0.3-0.39-0.33-0.83-0.28-1.29c0.13-1.2,0.27-2.39,0.4-3.59c0.16-1.46,0.28-2.92,0.54-4.36
				c0.4-2.17,0.94-4.29,1.68-6.37c0.97-2.75,2.04-5.46,3.26-8.11c2.08-4.48,4.47-8.79,7.27-12.87c1.99-2.9,4.09-5.69,6.71-8.07
				c0.2-0.18,0.39-0.36,0.6-0.52c0.32-0.24,0.68-0.22,1.03-0.09c0.36,0.13,0.47,0.43,0.31,0.78c-0.06,0.13-0.16,0.26-0.26,0.37
				c-1.35,1.48-2.61,3.03-3.84,4.61c-1.72,2.22-3.29,4.55-4.75,6.95c-1.91,3.14-3.62,6.38-5.19,9.71c-0.78,1.65-1.51,3.32-2.2,5.01
				c-0.78,1.88-1.36,3.82-1.83,5.8c-0.31,1.3-0.67,2.58-0.82,3.91c-0.03,0.24-0.16,0.55,0.1,0.66c0.23,0.1,0.43-0.17,0.59-0.36
				c0.63-0.78,1.11-1.66,1.68-2.48c2.2-3.13,4.43-6.24,6.85-9.21c2.15-2.63,4.37-5.2,6.66-7.71c2.1-2.3,4.26-4.54,6.43-6.77
				c1.54-1.58,3.25-3,4.86-4.51c2.16-2.02,4.47-3.84,6.9-5.52c1.59-1.1,3.24-2.08,5.05-2.79c1.13-0.45,2.3-0.77,3.5-0.96
				c2.19-0.34,4.38,0.85,5.31,2.86c0.85,1.85,1.04,3.79,0.75,5.79c-0.32,2.19-0.9,4.3-1.7,6.36c-0.36,0.92-0.33,0.95,0.63,0.96
				c2.29,0.03,4.59,0.1,6.88,0.03c0.89-0.03,1.78-0.14,2.66-0.23c0.48-0.04,0.87-0.24,1.17-0.62c0.2-0.25,0.39-0.51,0.57-0.77
				c1.43-2.12,2.85-4.26,4.4-6.31c0.31-0.41,0.61-0.82,1.02-1.13c0.46-0.35,0.73-0.28,0.98,0.24c0.16,0.34,0.2,0.69,0.02,1.03
				c-0.15,0.28-0.3,0.57-0.48,0.83c-1.1,1.51-2.09,3.09-3.05,4.69c-0.29,0.48-0.62,0.94-0.93,1.42c-0.05,0.08-0.11,0.16-0.15,0.24
				c-0.18,0.38-0.11,0.52,0.31,0.54c2.84,0.13,5.68,0.26,8.53,0.24c2.45-0.01,4.89,0,7.34-0.07c2.77-0.08,5.53-0.29,8.29-0.49
				c1.25-0.09,2.49-0.23,3.75-0.17c0.55,0.02,1.1,0.09,1.63,0.23c0.07,0.02,0.15,0.04,0.22,0.07c0.46,0.18,0.47,0.26,0.14,0.61
				c-0.42,0.45-0.98,0.63-1.56,0.75c-0.88,0.17-1.76,0.23-2.66,0.24c-6.45,0.07-12.89-0.05-19.34,0c-1.88,0.01-3.75,0.05-5.63,0.07
				c-0.59,0-1.17-0.04-1.76-0.07c-0.56-0.03-0.98,0.18-1.3,0.65c-1.02,1.51-2.07,3.01-3.1,4.52c-0.92,1.35-1.87,2.69-2.74,4.08
				c-1.8,2.85-3.62,5.69-4.99,8.78c-0.56,1.25-1.05,2.54-1.3,3.9c-0.09,0.49,0,0.96,0.18,1.43c0.2,0.52,0.6,0.69,1.11,0.71
				c0.58,0.01,1.13-0.11,1.66-0.32c1.62-0.62,3.09-1.5,4.55-2.42c1.82-1.16,3.49-2.52,5.23-3.8c0.93-0.68,1.87-1.35,2.83-1.99
				c2.43-1.61,5.11-2.31,8.03-2.13c0.8,0.05,1.48-0.15,2.04-0.77c0.62-0.69,1.28-1.33,1.93-1.99c0.21-0.21,0.44-0.42,0.67-0.61
				c0.3-0.26,0.64-0.32,1-0.13c0.35,0.19,0.5,0.51,0.49,0.89c0,0.36-0.11,0.7-0.27,1.03c-0.36,0.73-0.72,1.45-1.07,2.18
				c-0.61,1.24-1.11,2.51-1.31,3.88c-0.06,0.45-0.09,0.9-0.04,1.35c0.07,0.66,0.38,0.91,1.05,0.92c0.79,0.01,1.55-0.16,2.27-0.47
				c0.96-0.41,1.9-0.84,2.81-1.35c0.84-0.47,1.45-1.14,1.88-1.98c0.22-0.42,0.39-0.86,0.6-1.28c0.18-0.34,0.08-0.61-0.15-0.87
				c-0.53-0.6-0.53-0.75,0.11-1.26c1.26-1.01,2.43-2.1,3.36-3.42c0.62-0.88,1.23-1.76,1.84-2.65c1.67-2.44,3.3-4.91,5-7.33
				c1.15-1.63,2.37-3.22,3.82-4.61c0.96-0.92,2.03-1.7,3.18-2.36c0.26-0.15,0.54-0.28,0.83-0.36c0.74-0.22,1.53,0.15,1.82,0.86
				c0.08,0.21,0.04,0.4-0.03,0.6c-0.17,0.52-0.42,1-0.65,1.5c-0.74,1.6-1.71,3.03-2.83,4.4c-1.77,2.17-3.7,4.19-5.61,6.22
				c-0.92,0.98-1.92,1.87-2.96,2.72c-1.94,1.6-3.55,3.45-4.8,5.66c-1.78,3.16-3.56,6.33-5.38,9.48c-0.85,1.47-1.79,2.88-2.56,4.39
				C206.12,50.96,205.92,51.26,206.05,51.69z M128.81,51.42c0,1.05-0.01,2.11,0.29,3.13c0.37,1.25,0.91,2.44,1.59,3.54
				c0.58,0.93,1.4,1.66,2.49,1.95c1.31,0.35,2.65,0.38,4,0.09c2.33-0.5,4.44-1.51,6.44-2.74c3.63-2.23,6.83-4.99,9.91-7.9
				c1.74-1.65,3.32-3.46,4.95-5.21c3.2-3.43,6.08-7.11,8.69-10.99c1.47-2.18,2.86-4.43,4-6.82c0.68-1.43,1.48-2.8,1.89-4.34
				c0.03-0.11,0.08-0.22,0.14-0.31c0.87-1.31,1.31-2.79,1.7-4.28c0.6-2.29,0.94-4.6,0.64-6.97c-0.18-1.45-1.14-2.36-2.61-2.4
				c-1.95-0.05-3.8,0.37-5.51,1.34c-2.71,1.53-5.25,3.31-7.61,5.32c-2.78,2.36-5.49,4.8-7.96,7.48c-2.5,2.7-5.1,5.31-7.51,8.09
				c-2.14,2.46-4.29,4.92-6.37,7.43c-2.24,2.7-4.46,5.42-6.73,8.09c-0.57,0.67-1.12,1.37-1.67,2.07c-0.52,0.64-0.76,1.38-0.74,2.2
				C128.82,50.59,128.81,51.01,128.81,51.42z M218.89,28.71c0.47-0.03,0.68-0.42,0.97-0.7c0.99-0.96,2.01-1.88,2.95-2.89
				c1.41-1.52,2.81-3.05,4.08-4.69c0.56-0.73,1.17-1.43,1.59-2.26c0.13-0.25,0.38-0.6,0.09-0.81c-0.25-0.18-0.57,0.06-0.81,0.25
				c-0.56,0.45-1.11,0.92-1.57,1.46c-2.54,2.96-5.03,5.96-7.17,9.23C218.93,28.43,218.82,28.54,218.89,28.71z M198.99,37.66
				c-0.76-0.09-2.61,0.13-3.4,0.4c-1.95,0.67-3.64,1.74-5.11,3.18c-0.16,0.16-0.21,0.35-0.29,0.54c-0.07,0.14,0.04,0.21,0.16,0.22
				c0.11,0.01,0.23,0.01,0.34-0.01c0.72-0.15,1.45-0.29,2.12-0.61c0.99-0.47,2.02-0.88,2.95-1.46
				C196.84,39.23,197.98,38.62,198.99,37.66z M234.64,38.93c1.01,0.04,1.97-0.15,2.92-0.37c0.79-0.18,1.53-0.53,2.25-0.91
				c0.32-0.17,0.59-0.41,0.82-0.69c0.11-0.13,0.2-0.29,0.11-0.46c-0.08-0.15-0.25-0.17-0.4-0.16c-0.21,0.01-0.42,0.02-0.62,0.05
				c-1.73,0.29-3.23,1.13-4.74,1.94C234.77,38.45,234.61,38.6,234.64,38.93z"/>
			<path d="M41.57,77.54c-0.12-0.17-0.07-0.31-0.01-0.44c0.64-1.46,1.22-2.95,1.94-4.39c1.64-3.29,3.49-6.46,5.45-9.57
				c2.03-3.24,4.08-6.47,6.19-9.66c1.78-2.69,3.64-5.32,5.53-7.93c1.35-1.86,2.67-3.74,4.15-5.51c0.45-0.53,0.84-1.11,1.26-1.67
				c0.11-0.14,0.19-0.29,0.03-0.45c-0.14-0.14-0.28-0.08-0.41,0c-0.2,0.11-0.39,0.23-0.57,0.36c-1.34,0.99-2.65,2.01-4.01,2.97
				c-1.73,1.22-3.43,2.48-5.33,3.44c-1.21,0.62-2.44,1.22-3.78,1.53c-0.83,0.19-1.67,0.37-2.53,0.28c-1.3-0.14-2.29-0.74-2.84-1.96
				c-0.28-0.62-0.44-1.28-0.46-1.96c-0.05-1.87,0.12-3.71,0.56-5.53c1.03-4.2,2.12-8.38,3.21-12.56c0.42-1.6,0.85-3.19,1.19-4.81
				c0.18-0.86,0.17-1.72,0.15-2.58c-0.01-0.27-0.13-0.35-0.39-0.36c-0.5-0.01-0.98,0.04-1.46,0.18c-0.73,0.22-1.43,0.49-2.1,0.86
				c-2.26,1.23-4.37,2.71-6.45,4.22c-1.97,1.44-3.9,2.93-5.84,4.4c-2.48,1.88-4.96,3.78-7.38,5.74c-2.02,1.64-3.99,3.35-6.08,4.92
				c-1.42,1.07-2.71,2.29-4.02,3.49c-1.23,1.12-2.46,2.23-3.78,3.24c-0.18,0.14-0.36,0.28-0.57,0.37c-0.18,0.07-0.34,0.05-0.47-0.08
				c-0.15-0.13-0.07-0.28-0.01-0.42c0.22-0.55,0.57-1.02,0.98-1.44c1.29-1.3,2.6-2.58,3.99-3.78c3.18-2.73,6.46-5.35,9.69-8.02
				c3.57-2.94,7.3-5.69,11.03-8.44c2.33-1.71,4.7-3.37,7.13-4.94c1.44-0.93,2.98-1.64,4.67-2.01c1.11-0.24,2.13,0.24,2.62,1.21
				c0.17,0.33,0.22,0.68,0.23,1.04c0.05,1.12-0.17,2.21-0.4,3.29c-0.42,1.89-0.97,3.75-1.47,5.62c-0.89,3.34-1.9,6.65-2.65,10.02
				c-0.45,2.03-0.88,4.08-0.73,6.19c0.03,0.38,0.08,0.75,0.21,1.1c0.27,0.77,0.9,1.2,1.7,1.26c1.38,0.11,2.62-0.34,3.82-0.92
				c2.19-1.05,4.25-2.31,6.21-3.75c2.42-1.78,4.8-3.61,7.09-5.56c1.4-1.19,2.68-2.49,3.99-3.77c3.53-3.44,6.93-7,10.37-10.53
				c0.45-0.46,0.91-0.9,1.42-1.29c0.39-0.3,0.82-0.54,1.28-0.72c0.29-0.11,0.42-0.01,0.45,0.29c0.01,0.17-0.05,0.33-0.11,0.49
				c-0.26,0.74-0.71,1.37-1.22,1.95c-0.84,0.97-1.68,1.94-2.55,2.88c-2.87,3.13-5.59,6.38-8.31,9.64c-2.27,2.72-4.43,5.54-6.58,8.35
				c-2.77,3.63-5.3,7.42-7.93,11.15c-1.3,1.85-2.53,3.75-3.77,5.64c-2.77,4.22-5.27,8.6-7.86,12.94c-0.86,1.44-1.75,2.86-2.82,4.16
				c-0.29,0.35-0.54,0.73-0.81,1.09C42.2,77.14,41.92,77.37,41.57,77.54z"/>
			<path d="M96.35,42.07c0.04-0.84,0.03-0.86-0.76-0.5c-0.79,0.36-1.58,0.72-2.42,0.96c-1.02,0.29-2.05,0.38-3.09,0.24
				c-0.59-0.08-1.13-0.32-1.6-0.69c-0.43-0.34-0.7-0.79-0.78-1.33c-0.04-0.28-0.07-0.56-0.1-0.84c-0.03-0.2,0.02-0.44-0.2-0.55
				c-0.26-0.13-0.48,0.03-0.67,0.19c-0.64,0.54-1.33,0.99-2.01,1.48c-0.89,0.64-1.8,1.25-2.77,1.77c-0.54,0.29-1.12,0.45-1.73,0.49
				c-0.79,0.04-1.43-0.5-1.5-1.29c-0.03-0.28,0-0.56,0.07-0.84c0.23-0.97,0.68-1.83,1.26-2.63c0.44-0.61,0.91-1.2,1.38-1.8
				c0.3-0.39,0.65-0.73,1.06-1.02c0.43-0.31,0.64-0.34,0.87-0.16c0.31,0.25,0.44,0.77,0.25,1.13c-0.16,0.3-0.34,0.59-0.54,0.86
				c-0.42,0.58-0.86,1.15-1.29,1.72c-0.25,0.33-0.47,0.68-0.59,1.09c-0.04,0.13-0.07,0.27,0.06,0.36c0.11,0.08,0.22,0.01,0.32-0.04
				c0.62-0.25,1.16-0.63,1.68-1.04c1.54-1.22,3.08-2.44,4.63-3.65c0.27-0.21,0.54-0.42,0.82-0.6c0.45-0.28,0.93-0.41,1.47-0.3
				c0.52,0.11,0.73,0.42,0.62,0.93c-0.14,0.72-0.44,1.4-0.64,2.1c-0.13,0.47-0.3,0.93-0.35,1.42c-0.11,1.01,0.39,1.58,1.41,1.61
				c0.69,0.02,1.35-0.16,2.02-0.31c1-0.23,1.97-0.56,2.89-0.99c0.43-0.2,0.75-0.49,0.98-0.9c0.51-0.88,0.95-1.79,1.4-2.71
				c0.48-0.98,0.99-1.95,1.63-2.83c0.24-0.33,0.52-0.59,0.91-0.74c0.23-0.09,0.43-0.09,0.65,0.03c0.74,0.39,0.99,1.06,0.68,1.84
				c-0.11,0.28-0.27,0.54-0.43,0.79c-0.86,1.35-1.74,2.69-2.59,4.05c-0.47,0.75-0.87,1.54-1.04,2.43c-0.25,1.3,0.13,1.75,1.46,1.72
				c0.48-0.01,0.94-0.1,1.39-0.26c1.83-0.66,3.52-1.57,5.03-2.8c0.37-0.3,0.71-0.63,1.15-0.81c0.51-0.22,0.87-0.12,1.17,0.34
				c0.29,0.45,0.23,0.82-0.21,1.19c-0.17,0.14-0.36,0.28-0.56,0.39c-2.03,1.11-4.08,2.14-6.31,2.81c-1.13,0.34-2.25,0.37-3.41,0.08
				C96.71,44.1,96.3,43.02,96.35,42.07z"/>
			<path d="M103.2,30.13c0.08-0.93,0.4-1.81,1.06-2.52c0.55-0.59,1.27-0.8,2.07-0.68c0.6,0.09,0.88,0.51,0.75,1.09
				c-0.07,0.32-0.22,0.6-0.43,0.85c-0.72,0.86-1.64,1.43-2.66,1.88C103.46,30.99,103.19,30.78,103.2,30.13z"/>
		</g>
	</g>
	<g>
		<g>
			<path class="st0" d="M206.05,51.69c0.41-0.27,0.71-0.61,1-0.94c0.7-0.8,1.48-1.51,2.23-2.25c1.77-1.73,3.36-3.62,4.97-5.5
				c0.46-0.54,0.65-1.08,0.39-1.75c-0.01-0.02-0.01-0.04-0.01-0.05c-0.3-0.89-0.13-1.03,0.79-1.27c0.02,0,0.04-0.01,0.06-0.01
				c1.7,0,3.06-0.87,4.43-1.72c1.81-1.13,3.64-2.23,5.47-3.34c0.47-0.29,0.96-0.54,1.5-0.67c0.61-0.14,1.17-0.07,1.66,0.33
				c0.35,0.28,0.41,0.53,0.19,0.94c-0.22,0.41-0.56,0.7-0.93,0.98c-0.97,0.73-2.04,1.29-3.1,1.88c-1.49,0.83-2.98,1.65-4.47,2.47
				c-0.26,0.15-0.53,0.28-0.76,0.49c0.14,0.33,0.41,0.45,0.7,0.56c0.86,0.34,1.77,0.41,2.67,0.54c2.36,0.34,4.55-0.19,6.67-1.19
				c0.63-0.3,1.27-0.59,1.94-0.81c0.29-0.1,0.48-0.28,0.63-0.53c0.19-0.33,0.35-0.67,0.49-1.02c0.54-1.35,1.48-2.3,2.84-2.83
				c1.69-0.66,3.44-1.03,5.26-1.07c0.4-0.01,0.8,0.03,1.13,0.29c0.83,0.63,0.81,2.02-0.04,2.65c-0.23,0.17-0.48,0.31-0.74,0.42
				c-1.28,0.52-2.54,1.11-3.93,1.29c-0.64,0.08-1.28,0.12-1.92,0.17c-0.4,0.03-0.79,0.08-1.13,0.33c-0.45,0.34-0.51,0.73-0.13,1.15
				c0.64,0.73,1.5,0.99,2.44,1.04c1.81,0.09,3.6-0.04,5.38-0.37c1.04-0.19,2.09-0.36,3.1-0.69c1.13-0.38,2.24-0.82,3.26-1.45
				c0.47-0.29,0.95-0.54,1.49-0.69c0.59-0.16,1.27,0.21,1.45,0.79c0.07,0.23-0.07,0.35-0.22,0.47c-0.5,0.38-1.07,0.64-1.63,0.91
				c-1.76,0.82-3.61,1.35-5.5,1.79c-1.61,0.38-3.25,0.54-4.9,0.59c-0.85,0.03-1.7,0.09-2.55,0.11c-0.42,0.01-0.84,0.01-1.25-0.05
				c-1.16-0.16-2.06-0.73-2.61-1.77c-0.11-0.21-0.22-0.22-0.39-0.11c-0.19,0.13-0.38,0.24-0.58,0.36c-2.27,1.4-4.74,2.18-7.42,2.21
				c-1.27,0.02-2.53-0.21-3.75-0.59c-0.76-0.24-1.52-0.48-2.27-0.74c-0.52-0.18-0.95-0.08-1.37,0.25c-1.11,0.88-2.11,1.89-3.17,2.82
				c-2.1,1.86-3.94,3.95-5.83,6.02c-0.88,0.96-1.64,2.02-2.46,3.03c-0.28,0.35-0.57,0.71-0.91,1c-0.42,0.35-0.87,0.4-1.25,0.15
				c-0.37-0.24-0.52-0.58-0.43-1.02c0.09-0.42,0.23-0.83,0.43-1.22c1.73-3.43,3.35-6.91,5.11-10.32c0.08-0.15,0.15-0.31,0.21-0.46
				c0.03-0.08,0.1-0.18,0.01-0.26c-0.09-0.08-0.21-0.1-0.32-0.05c-0.15,0.07-0.28,0.2-0.44,0.25c-1.1,0.33-2.15,0.84-3.31,0.99
				c-0.78,0.1-1.55,0.12-2.32-0.05c-0.94-0.2-1.48-0.8-1.57-1.75c-0.08-0.84-0.04-1.69,0.09-2.53c0.03-0.21,0.18-0.49-0.02-0.63
				c-0.19-0.13-0.43,0.05-0.63,0.15c-1.04,0.51-1.97,1.19-2.97,1.77c-1.54,0.89-3.05,1.83-4.64,2.63c-0.57,0.28-1.17,0.42-1.8,0.47
				c-0.95,0.08-1.75-0.18-2.41-0.88c-0.38-0.4-0.62-0.41-1.02-0.05c-0.79,0.72-1.76,1.18-2.66,1.72c-1.38,0.82-2.79,1.6-4.28,2.22
				c-1.09,0.46-2.2,0.92-3.42,0.95c-1.27,0.03-2.15-0.7-2.39-1.95c-0.23-1.18-0.01-2.32,0.29-3.45c0.62-2.28,1.56-4.44,2.71-6.49
				c1.71-3.04,3.61-5.96,5.59-8.83c0.77-1.12,1.53-2.24,2.28-3.37c0.11-0.16,0.2-0.32,0.29-0.49c0.27-0.48,0.23-0.57-0.33-0.59
				c-0.99-0.03-1.97-0.05-2.96-0.05c-2.16,0-4.32,0.03-6.48,0.03c-0.31,0-0.52,0.06-0.65,0.39c-1.97,4.67-4.53,9-7.5,13.11
				c-2.39,3.3-4.93,6.48-7.62,9.54c-2.37,2.7-4.88,5.26-7.57,7.63c-2.58,2.27-5.26,4.44-8.29,6.1c-1.91,1.05-3.85,2.02-6,2.52
				c-1.09,0.25-2.2,0.42-3.32,0.32c-2.31-0.21-4.15-1.23-5.44-3.16c-1-1.5-1.64-3.17-2.19-4.87c-0.09-0.28-0.13-0.59-0.19-0.88
				c-0.05-0.24-0.1-0.49-0.25-0.68c-0.3-0.39-0.33-0.83-0.28-1.29c0.13-1.2,0.27-2.39,0.4-3.59c0.16-1.46,0.28-2.92,0.54-4.36
				c0.4-2.17,0.94-4.29,1.68-6.37c0.97-2.75,2.04-5.46,3.26-8.11c2.08-4.48,4.47-8.79,7.27-12.87c1.99-2.9,4.09-5.69,6.71-8.07
				c0.2-0.18,0.39-0.36,0.6-0.52c0.32-0.24,0.68-0.22,1.03-0.09c0.36,0.13,0.47,0.43,0.31,0.78c-0.06,0.13-0.16,0.26-0.26,0.37
				c-1.35,1.48-2.61,3.03-3.84,4.61c-1.72,2.22-3.29,4.55-4.75,6.95c-1.91,3.14-3.62,6.38-5.19,9.71c-0.78,1.65-1.51,3.32-2.2,5.01
				c-0.78,1.88-1.36,3.82-1.83,5.8c-0.31,1.3-0.67,2.58-0.82,3.91c-0.03,0.24-0.16,0.55,0.1,0.66c0.23,0.1,0.43-0.17,0.59-0.36
				c0.63-0.78,1.11-1.66,1.68-2.48c2.2-3.13,4.43-6.24,6.85-9.21c2.15-2.63,4.37-5.2,6.66-7.71c2.1-2.3,4.26-4.54,6.43-6.77
				c1.54-1.58,3.25-3,4.86-4.51c2.16-2.02,4.47-3.84,6.9-5.52c1.59-1.1,3.24-2.08,5.05-2.79c1.13-0.45,2.3-0.77,3.5-0.96
				c2.19-0.34,4.38,0.85,5.31,2.86c0.85,1.85,1.04,3.79,0.75,5.79c-0.32,2.19-0.9,4.3-1.7,6.36c-0.36,0.92-0.33,0.95,0.63,0.96
				c2.29,0.03,4.59,0.1,6.88,0.03c0.89-0.03,1.78-0.14,2.66-0.23c0.48-0.04,0.87-0.24,1.17-0.62c0.2-0.25,0.39-0.51,0.57-0.77
				c1.43-2.12,2.85-4.26,4.4-6.31c0.31-0.41,0.61-0.82,1.02-1.13c0.46-0.35,0.73-0.28,0.98,0.24c0.16,0.34,0.2,0.69,0.02,1.03
				c-0.15,0.28-0.3,0.57-0.48,0.83c-1.1,1.51-2.09,3.09-3.05,4.69c-0.29,0.48-0.62,0.94-0.93,1.42c-0.05,0.08-0.11,0.16-0.15,0.24
				c-0.18,0.38-0.11,0.52,0.31,0.54c2.84,0.13,5.68,0.26,8.53,0.24c2.45-0.01,4.89,0,7.34-0.07c2.77-0.08,5.53-0.29,8.29-0.49
				c1.25-0.09,2.49-0.23,3.75-0.17c0.55,0.02,1.1,0.09,1.63,0.23c0.07,0.02,0.15,0.04,0.22,0.07c0.46,0.18,0.47,0.26,0.14,0.61
				c-0.42,0.45-0.98,0.63-1.56,0.75c-0.88,0.17-1.76,0.23-2.66,0.24c-6.45,0.07-12.89-0.05-19.34,0c-1.88,0.01-3.75,0.05-5.63,0.07
				c-0.59,0-1.17-0.04-1.76-0.07c-0.56-0.03-0.98,0.18-1.3,0.65c-1.02,1.51-2.07,3.01-3.1,4.52c-0.92,1.35-1.87,2.69-2.74,4.08
				c-1.8,2.85-3.62,5.69-4.99,8.78c-0.56,1.25-1.05,2.54-1.3,3.9c-0.09,0.49,0,0.96,0.18,1.43c0.2,0.52,0.6,0.69,1.11,0.71
				c0.58,0.01,1.13-0.11,1.66-0.32c1.62-0.62,3.09-1.5,4.55-2.42c1.82-1.16,3.49-2.52,5.23-3.8c0.93-0.68,1.87-1.35,2.83-1.99
				c2.43-1.61,5.11-2.31,8.03-2.13c0.8,0.05,1.48-0.15,2.04-0.77c0.62-0.69,1.28-1.33,1.93-1.99c0.21-0.21,0.44-0.42,0.67-0.61
				c0.3-0.26,0.64-0.32,1-0.13c0.35,0.19,0.5,0.51,0.49,0.89c0,0.36-0.11,0.7-0.27,1.03c-0.36,0.73-0.72,1.45-1.07,2.18
				c-0.61,1.24-1.11,2.51-1.31,3.88c-0.06,0.45-0.09,0.9-0.04,1.35c0.07,0.66,0.38,0.91,1.05,0.92c0.79,0.01,1.55-0.16,2.27-0.47
				c0.96-0.41,1.9-0.84,2.81-1.35c0.84-0.47,1.45-1.14,1.88-1.98c0.22-0.42,0.39-0.86,0.6-1.28c0.18-0.34,0.08-0.61-0.15-0.87
				c-0.53-0.6-0.53-0.75,0.11-1.26c1.26-1.01,2.43-2.1,3.36-3.42c0.62-0.88,1.23-1.76,1.84-2.65c1.67-2.44,3.3-4.91,5-7.33
				c1.15-1.63,2.37-3.22,3.82-4.61c0.96-0.92,2.03-1.7,3.18-2.36c0.26-0.15,0.54-0.28,0.83-0.36c0.74-0.22,1.53,0.15,1.82,0.86
				c0.08,0.21,0.04,0.4-0.03,0.6c-0.17,0.52-0.42,1-0.65,1.5c-0.74,1.6-1.71,3.03-2.83,4.4c-1.77,2.17-3.7,4.19-5.61,6.22
				c-0.92,0.98-1.92,1.87-2.96,2.72c-1.94,1.6-3.55,3.45-4.8,5.66c-1.78,3.16-3.56,6.33-5.38,9.48c-0.85,1.47-1.79,2.88-2.56,4.39
				C206.12,50.96,205.92,51.26,206.05,51.69z M128.81,51.42c0,1.05-0.01,2.11,0.29,3.13c0.37,1.25,0.91,2.44,1.59,3.54
				c0.58,0.93,1.4,1.66,2.49,1.95c1.31,0.35,2.65,0.38,4,0.09c2.33-0.5,4.44-1.51,6.44-2.74c3.63-2.23,6.83-4.99,9.91-7.9
				c1.74-1.65,3.32-3.46,4.95-5.21c3.2-3.43,6.08-7.11,8.69-10.99c1.47-2.18,2.86-4.43,4-6.82c0.68-1.43,1.48-2.8,1.89-4.34
				c0.03-0.11,0.08-0.22,0.14-0.31c0.87-1.31,1.31-2.79,1.7-4.28c0.6-2.29,0.94-4.6,0.64-6.97c-0.18-1.45-1.14-2.36-2.61-2.4
				c-1.95-0.05-3.8,0.37-5.51,1.34c-2.71,1.53-5.25,3.31-7.61,5.32c-2.78,2.36-5.49,4.8-7.96,7.48c-2.5,2.7-5.1,5.31-7.51,8.09
				c-2.14,2.46-4.29,4.92-6.37,7.43c-2.24,2.7-4.46,5.42-6.73,8.09c-0.57,0.67-1.12,1.37-1.67,2.07c-0.52,0.64-0.76,1.38-0.74,2.2
				C128.82,50.59,128.81,51.01,128.81,51.42z M218.89,28.71c0.47-0.03,0.68-0.42,0.97-0.7c0.99-0.96,2.01-1.88,2.95-2.89
				c1.41-1.52,2.81-3.05,4.08-4.69c0.56-0.73,1.17-1.43,1.59-2.26c0.13-0.25,0.38-0.6,0.09-0.81c-0.25-0.18-0.57,0.06-0.81,0.25
				c-0.56,0.45-1.11,0.92-1.57,1.46c-2.54,2.96-5.03,5.96-7.17,9.23C218.93,28.43,218.82,28.54,218.89,28.71z M198.99,37.66
				c-0.76-0.09-2.61,0.13-3.4,0.4c-1.95,0.67-3.64,1.74-5.11,3.18c-0.16,0.16-0.21,0.35-0.29,0.54c-0.07,0.14,0.04,0.21,0.16,0.22
				c0.11,0.01,0.23,0.01,0.34-0.01c0.72-0.15,1.45-0.29,2.12-0.61c0.99-0.47,2.02-0.88,2.95-1.46
				C196.84,39.23,197.98,38.62,198.99,37.66z M234.64,38.93c1.01,0.04,1.97-0.15,2.92-0.37c0.79-0.18,1.53-0.53,2.25-0.91
				c0.32-0.17,0.59-0.41,0.82-0.69c0.11-0.13,0.2-0.29,0.11-0.46c-0.08-0.15-0.25-0.17-0.4-0.16c-0.21,0.01-0.42,0.02-0.62,0.05
				c-1.73,0.29-3.23,1.13-4.74,1.94C234.77,38.45,234.61,38.6,234.64,38.93z"/>
			<path class="st0" d="M41.57,77.54c-0.12-0.17-0.07-0.31-0.01-0.44c0.64-1.46,1.22-2.95,1.94-4.39c1.64-3.29,3.49-6.46,5.45-9.57
				c2.03-3.24,4.08-6.47,6.19-9.66c1.78-2.69,3.64-5.32,5.53-7.93c1.35-1.86,2.67-3.74,4.15-5.51c0.45-0.53,0.84-1.11,1.26-1.67
				c0.11-0.14,0.19-0.29,0.03-0.45c-0.14-0.14-0.28-0.08-0.41,0c-0.2,0.11-0.39,0.23-0.57,0.36c-1.34,0.99-2.65,2.01-4.01,2.97
				c-1.73,1.22-3.43,2.48-5.33,3.44c-1.21,0.62-2.44,1.22-3.78,1.53c-0.83,0.19-1.67,0.37-2.53,0.28c-1.3-0.14-2.29-0.74-2.84-1.96
				c-0.28-0.62-0.44-1.28-0.46-1.96c-0.05-1.87,0.12-3.71,0.56-5.53c1.03-4.2,2.12-8.38,3.21-12.56c0.42-1.6,0.85-3.19,1.19-4.81
				c0.18-0.86,0.17-1.72,0.15-2.58c-0.01-0.27-0.13-0.35-0.39-0.36c-0.5-0.01-0.98,0.04-1.46,0.18c-0.73,0.22-1.43,0.49-2.1,0.86
				c-2.26,1.23-4.37,2.71-6.45,4.22c-1.97,1.44-3.9,2.93-5.84,4.4c-2.48,1.88-4.96,3.78-7.38,5.74c-2.02,1.64-3.99,3.35-6.08,4.92
				c-1.42,1.07-2.71,2.29-4.02,3.49c-1.23,1.12-2.46,2.23-3.78,3.24c-0.18,0.14-0.36,0.28-0.57,0.37c-0.18,0.07-0.34,0.05-0.47-0.08
				c-0.15-0.13-0.07-0.28-0.01-0.42c0.22-0.55,0.57-1.02,0.98-1.44c1.29-1.3,2.6-2.58,3.99-3.78c3.18-2.73,6.46-5.35,9.69-8.02
				c3.57-2.94,7.3-5.69,11.03-8.44c2.33-1.71,4.7-3.37,7.13-4.94c1.44-0.93,2.98-1.64,4.67-2.01c1.11-0.24,2.13,0.24,2.62,1.21
				c0.17,0.33,0.22,0.68,0.23,1.04c0.05,1.12-0.17,2.21-0.4,3.29c-0.42,1.89-0.97,3.75-1.47,5.62c-0.89,3.34-1.9,6.65-2.65,10.02
				c-0.45,2.03-0.88,4.08-0.73,6.19c0.03,0.38,0.08,0.75,0.21,1.1c0.27,0.77,0.9,1.2,1.7,1.26c1.38,0.11,2.62-0.34,3.82-0.92
				c2.19-1.05,4.25-2.31,6.21-3.75c2.42-1.78,4.8-3.61,7.09-5.56c1.4-1.19,2.68-2.49,3.99-3.77c3.53-3.44,6.93-7,10.37-10.53
				c0.45-0.46,0.91-0.9,1.42-1.29c0.39-0.3,0.82-0.54,1.28-0.72c0.29-0.11,0.42-0.01,0.45,0.29c0.01,0.17-0.05,0.33-0.11,0.49
				c-0.26,0.74-0.71,1.37-1.22,1.95c-0.84,0.97-1.68,1.94-2.55,2.88c-2.87,3.13-5.59,6.38-8.31,9.64c-2.27,2.72-4.43,5.54-6.58,8.35
				c-2.77,3.63-5.3,7.42-7.93,11.15c-1.3,1.85-2.53,3.75-3.77,5.64c-2.77,4.22-5.27,8.6-7.86,12.94c-0.86,1.44-1.75,2.86-2.82,4.16
				c-0.29,0.35-0.54,0.73-0.81,1.09C42.2,77.14,41.92,77.37,41.57,77.54z"/>
			<path class="st0" d="M96.35,42.07c0.04-0.84,0.03-0.86-0.76-0.5c-0.79,0.36-1.58,0.72-2.42,0.96c-1.02,0.29-2.05,0.38-3.09,0.24
				c-0.59-0.08-1.13-0.32-1.6-0.69c-0.43-0.34-0.7-0.79-0.78-1.33c-0.04-0.28-0.07-0.56-0.1-0.84c-0.03-0.2,0.02-0.44-0.2-0.55
				c-0.26-0.13-0.48,0.03-0.67,0.19c-0.64,0.54-1.33,0.99-2.01,1.48c-0.89,0.64-1.8,1.25-2.77,1.77c-0.54,0.29-1.12,0.45-1.73,0.49
				c-0.79,0.04-1.43-0.5-1.5-1.29c-0.03-0.28,0-0.56,0.07-0.84c0.23-0.97,0.68-1.83,1.26-2.63c0.44-0.61,0.91-1.2,1.38-1.8
				c0.3-0.39,0.65-0.73,1.06-1.02c0.43-0.31,0.64-0.34,0.87-0.16c0.31,0.25,0.44,0.77,0.25,1.13c-0.16,0.3-0.34,0.59-0.54,0.86
				c-0.42,0.58-0.86,1.15-1.29,1.72c-0.25,0.33-0.47,0.68-0.59,1.09c-0.04,0.13-0.07,0.27,0.06,0.36c0.11,0.08,0.22,0.01,0.32-0.04
				c0.62-0.25,1.16-0.63,1.68-1.04c1.54-1.22,3.08-2.44,4.63-3.65c0.27-0.21,0.54-0.42,0.82-0.6c0.45-0.28,0.93-0.41,1.47-0.3
				c0.52,0.11,0.73,0.42,0.62,0.93c-0.14,0.72-0.44,1.4-0.64,2.1c-0.13,0.47-0.3,0.93-0.35,1.42c-0.11,1.01,0.39,1.58,1.41,1.61
				c0.69,0.02,1.35-0.16,2.02-0.31c1-0.23,1.97-0.56,2.89-0.99c0.43-0.2,0.75-0.49,0.98-0.9c0.51-0.88,0.95-1.79,1.4-2.71
				c0.48-0.98,0.99-1.95,1.63-2.83c0.24-0.33,0.52-0.59,0.91-0.74c0.23-0.09,0.43-0.09,0.65,0.03c0.74,0.39,0.99,1.06,0.68,1.84
				c-0.11,0.28-0.27,0.54-0.43,0.79c-0.86,1.35-1.74,2.69-2.59,4.05c-0.47,0.75-0.87,1.54-1.04,2.43c-0.25,1.3,0.13,1.75,1.46,1.72
				c0.48-0.01,0.94-0.1,1.39-0.26c1.83-0.66,3.52-1.57,5.03-2.8c0.37-0.3,0.71-0.63,1.15-0.81c0.51-0.22,0.87-0.12,1.17,0.34
				c0.29,0.45,0.23,0.82-0.21,1.19c-0.17,0.14-0.36,0.28-0.56,0.39c-2.03,1.11-4.08,2.14-6.31,2.81c-1.13,0.34-2.25,0.37-3.41,0.08
				C96.71,44.1,96.3,43.02,96.35,42.07z"/>
			<path class="st0" d="M103.2,30.13c0.08-0.93,0.4-1.81,1.06-2.52c0.55-0.59,1.27-0.8,2.07-0.68c0.6,0.09,0.88,0.51,0.75,1.09
				c-0.07,0.32-0.22,0.6-0.43,0.85c-0.72,0.86-1.64,1.43-2.66,1.88C103.46,30.99,103.19,30.78,103.2,30.13z"/>
		</g>
	</g>
	<g>
		<g>
			<path class="st1" d="M206.05,51.69c0.41-0.27,0.71-0.61,1-0.94c0.7-0.8,1.48-1.51,2.23-2.25c1.77-1.73,3.36-3.62,4.97-5.5
				c0.46-0.54,0.65-1.08,0.39-1.75c-0.01-0.02-0.01-0.04-0.01-0.05c-0.3-0.89-0.13-1.03,0.79-1.27c0.02,0,0.04-0.01,0.06-0.01
				c1.7,0,3.06-0.87,4.43-1.72c1.81-1.13,3.64-2.23,5.47-3.34c0.47-0.29,0.96-0.54,1.5-0.67c0.61-0.14,1.17-0.07,1.66,0.33
				c0.35,0.28,0.41,0.53,0.19,0.94c-0.22,0.41-0.56,0.7-0.93,0.98c-0.97,0.73-2.04,1.29-3.1,1.88c-1.49,0.83-2.98,1.65-4.47,2.47
				c-0.26,0.15-0.53,0.28-0.76,0.49c0.14,0.33,0.41,0.45,0.7,0.56c0.86,0.34,1.77,0.41,2.67,0.54c2.36,0.34,4.55-0.19,6.67-1.19
				c0.63-0.3,1.27-0.59,1.94-0.81c0.29-0.1,0.48-0.28,0.63-0.53c0.19-0.33,0.35-0.67,0.49-1.02c0.54-1.35,1.48-2.3,2.84-2.83
				c1.69-0.66,3.44-1.03,5.26-1.07c0.4-0.01,0.8,0.03,1.13,0.29c0.83,0.63,0.81,2.02-0.04,2.65c-0.23,0.17-0.48,0.31-0.74,0.42
				c-1.28,0.52-2.54,1.11-3.93,1.29c-0.64,0.08-1.28,0.12-1.92,0.17c-0.4,0.03-0.79,0.08-1.13,0.33c-0.45,0.34-0.51,0.73-0.13,1.15
				c0.64,0.73,1.5,0.99,2.44,1.04c1.81,0.09,3.6-0.04,5.38-0.37c1.04-0.19,2.09-0.36,3.1-0.69c1.13-0.38,2.24-0.82,3.26-1.45
				c0.47-0.29,0.95-0.54,1.49-0.69c0.59-0.16,1.27,0.21,1.45,0.79c0.07,0.23-0.07,0.35-0.22,0.47c-0.5,0.38-1.07,0.64-1.63,0.91
				c-1.76,0.82-3.61,1.35-5.5,1.79c-1.61,0.38-3.25,0.54-4.9,0.59c-0.85,0.03-1.7,0.09-2.55,0.11c-0.42,0.01-0.84,0.01-1.25-0.05
				c-1.16-0.16-2.06-0.73-2.61-1.77c-0.11-0.21-0.22-0.22-0.39-0.11c-0.19,0.13-0.38,0.24-0.58,0.36c-2.27,1.4-4.74,2.18-7.42,2.21
				c-1.27,0.02-2.53-0.21-3.75-0.59c-0.76-0.24-1.52-0.48-2.27-0.74c-0.52-0.18-0.95-0.08-1.37,0.25c-1.11,0.88-2.11,1.89-3.17,2.82
				c-2.1,1.86-3.94,3.95-5.83,6.02c-0.88,0.96-1.64,2.02-2.46,3.03c-0.28,0.35-0.57,0.71-0.91,1c-0.42,0.35-0.87,0.4-1.25,0.15
				c-0.37-0.24-0.52-0.58-0.43-1.02c0.09-0.42,0.23-0.83,0.43-1.22c1.73-3.43,3.35-6.91,5.11-10.32c0.08-0.15,0.15-0.31,0.21-0.46
				c0.03-0.08,0.1-0.18,0.01-0.26c-0.09-0.08-0.21-0.1-0.32-0.05c-0.15,0.07-0.28,0.2-0.44,0.25c-1.1,0.33-2.15,0.84-3.31,0.99
				c-0.78,0.1-1.55,0.12-2.32-0.05c-0.94-0.2-1.48-0.8-1.57-1.75c-0.08-0.84-0.04-1.69,0.09-2.53c0.03-0.21,0.18-0.49-0.02-0.63
				c-0.19-0.13-0.43,0.05-0.63,0.15c-1.04,0.51-1.97,1.19-2.97,1.77c-1.54,0.89-3.05,1.83-4.64,2.63c-0.57,0.28-1.17,0.42-1.8,0.47
				c-0.95,0.08-1.75-0.18-2.41-0.88c-0.38-0.4-0.62-0.41-1.02-0.05c-0.79,0.72-1.76,1.18-2.66,1.72c-1.38,0.82-2.79,1.6-4.28,2.22
				c-1.09,0.46-2.2,0.92-3.42,0.95c-1.27,0.03-2.15-0.7-2.39-1.95c-0.23-1.18-0.01-2.32,0.29-3.45c0.62-2.28,1.56-4.44,2.71-6.49
				c1.71-3.04,3.61-5.96,5.59-8.83c0.77-1.12,1.53-2.24,2.28-3.37c0.11-0.16,0.2-0.32,0.29-0.49c0.27-0.48,0.23-0.57-0.33-0.59
				c-0.99-0.03-1.97-0.05-2.96-0.05c-2.16,0-4.32,0.03-6.48,0.03c-0.31,0-0.52,0.06-0.65,0.39c-1.97,4.67-4.53,9-7.5,13.11
				c-2.39,3.3-4.93,6.48-7.62,9.54c-2.37,2.7-4.88,5.26-7.57,7.63c-2.58,2.27-5.26,4.44-8.29,6.1c-1.91,1.05-3.85,2.02-6,2.52
				c-1.09,0.25-2.2,0.42-3.32,0.32c-2.31-0.21-4.15-1.23-5.44-3.16c-1-1.5-1.64-3.17-2.19-4.87c-0.09-0.28-0.13-0.59-0.19-0.88
				c-0.05-0.24-0.1-0.49-0.25-0.68c-0.3-0.39-0.33-0.83-0.28-1.29c0.13-1.2,0.27-2.39,0.4-3.59c0.16-1.46,0.28-2.92,0.54-4.36
				c0.4-2.17,0.94-4.29,1.68-6.37c0.97-2.75,2.04-5.46,3.26-8.11c2.08-4.48,4.47-8.79,7.27-12.87c1.99-2.9,4.09-5.69,6.71-8.07
				c0.2-0.18,0.39-0.36,0.6-0.52c0.32-0.24,0.68-0.22,1.03-0.09c0.36,0.13,0.47,0.43,0.31,0.78c-0.06,0.13-0.16,0.26-0.26,0.37
				c-1.35,1.48-2.61,3.03-3.84,4.61c-1.72,2.22-3.29,4.55-4.75,6.95c-1.91,3.14-3.62,6.38-5.19,9.71c-0.78,1.65-1.51,3.32-2.2,5.01
				c-0.78,1.88-1.36,3.82-1.83,5.8c-0.31,1.3-0.67,2.58-0.82,3.91c-0.03,0.24-0.16,0.55,0.1,0.66c0.23,0.1,0.43-0.17,0.59-0.36
				c0.63-0.78,1.11-1.66,1.68-2.48c2.2-3.13,4.43-6.24,6.85-9.21c2.15-2.63,4.37-5.2,6.66-7.71c2.1-2.3,4.26-4.54,6.43-6.77
				c1.54-1.58,3.25-3,4.86-4.51c2.16-2.02,4.47-3.84,6.9-5.52c1.59-1.1,3.24-2.08,5.05-2.79c1.13-0.45,2.3-0.77,3.5-0.96
				c2.19-0.34,4.38,0.85,5.31,2.86c0.85,1.85,1.04,3.79,0.75,5.79c-0.32,2.19-0.9,4.3-1.7,6.36c-0.36,0.92-0.33,0.95,0.63,0.96
				c2.29,0.03,4.59,0.1,6.88,0.03c0.89-0.03,1.78-0.14,2.66-0.23c0.48-0.04,0.87-0.24,1.17-0.62c0.2-0.25,0.39-0.51,0.57-0.77
				c1.43-2.12,2.85-4.26,4.4-6.31c0.31-0.41,0.61-0.82,1.02-1.13c0.46-0.35,0.73-0.28,0.98,0.24c0.16,0.34,0.2,0.69,0.02,1.03
				c-0.15,0.28-0.3,0.57-0.48,0.83c-1.1,1.51-2.09,3.09-3.05,4.69c-0.29,0.48-0.62,0.94-0.93,1.42c-0.05,0.08-0.11,0.16-0.15,0.24
				c-0.18,0.38-0.11,0.52,0.31,0.54c2.84,0.13,5.68,0.26,8.53,0.24c2.45-0.01,4.89,0,7.34-0.07c2.77-0.08,5.53-0.29,8.29-0.49
				c1.25-0.09,2.49-0.23,3.75-0.17c0.55,0.02,1.1,0.09,1.63,0.23c0.07,0.02,0.15,0.04,0.22,0.07c0.46,0.18,0.47,0.26,0.14,0.61
				c-0.42,0.45-0.98,0.63-1.56,0.75c-0.88,0.17-1.76,0.23-2.66,0.24c-6.45,0.07-12.89-0.05-19.34,0c-1.88,0.01-3.75,0.05-5.63,0.07
				c-0.59,0-1.17-0.04-1.76-0.07c-0.56-0.03-0.98,0.18-1.3,0.65c-1.02,1.51-2.07,3.01-3.1,4.52c-0.92,1.35-1.87,2.69-2.74,4.08
				c-1.8,2.85-3.62,5.69-4.99,8.78c-0.56,1.25-1.05,2.54-1.3,3.9c-0.09,0.49,0,0.96,0.18,1.43c0.2,0.52,0.6,0.69,1.11,0.71
				c0.58,0.01,1.13-0.11,1.66-0.32c1.62-0.62,3.09-1.5,4.55-2.42c1.82-1.16,3.49-2.52,5.23-3.8c0.93-0.68,1.87-1.35,2.83-1.99
				c2.43-1.61,5.11-2.31,8.03-2.13c0.8,0.05,1.48-0.15,2.04-0.77c0.62-0.69,1.28-1.33,1.93-1.99c0.21-0.21,0.44-0.42,0.67-0.61
				c0.3-0.26,0.64-0.32,1-0.13c0.35,0.19,0.5,0.51,0.49,0.89c0,0.36-0.11,0.7-0.27,1.03c-0.36,0.73-0.72,1.45-1.07,2.18
				c-0.61,1.24-1.11,2.51-1.31,3.88c-0.06,0.45-0.09,0.9-0.04,1.35c0.07,0.66,0.38,0.91,1.05,0.92c0.79,0.01,1.55-0.16,2.27-0.47
				c0.96-0.41,1.9-0.84,2.81-1.35c0.84-0.47,1.45-1.14,1.88-1.98c0.22-0.42,0.39-0.86,0.6-1.28c0.18-0.34,0.08-0.61-0.15-0.87
				c-0.53-0.6-0.53-0.75,0.11-1.26c1.26-1.01,2.43-2.1,3.36-3.42c0.62-0.88,1.23-1.76,1.84-2.65c1.67-2.44,3.3-4.91,5-7.33
				c1.15-1.63,2.37-3.22,3.82-4.61c0.96-0.92,2.03-1.7,3.18-2.36c0.26-0.15,0.54-0.28,0.83-0.36c0.74-0.22,1.53,0.15,1.82,0.86
				c0.08,0.21,0.04,0.4-0.03,0.6c-0.17,0.52-0.42,1-0.65,1.5c-0.74,1.6-1.71,3.03-2.83,4.4c-1.77,2.17-3.7,4.19-5.61,6.22
				c-0.92,0.98-1.92,1.87-2.96,2.72c-1.94,1.6-3.55,3.45-4.8,5.66c-1.78,3.16-3.56,6.33-5.38,9.48c-0.85,1.47-1.79,2.88-2.56,4.39
				C206.12,50.96,205.92,51.26,206.05,51.69z M128.81,51.42c0,1.05-0.01,2.11,0.29,3.13c0.37,1.25,0.91,2.44,1.59,3.54
				c0.58,0.93,1.4,1.66,2.49,1.95c1.31,0.35,2.65,0.38,4,0.09c2.33-0.5,4.44-1.51,6.44-2.74c3.63-2.23,6.83-4.99,9.91-7.9
				c1.74-1.65,3.32-3.46,4.95-5.21c3.2-3.43,6.08-7.11,8.69-10.99c1.47-2.18,2.86-4.43,4-6.82c0.68-1.43,1.48-2.8,1.89-4.34
				c0.03-0.11,0.08-0.22,0.14-0.31c0.87-1.31,1.31-2.79,1.7-4.28c0.6-2.29,0.94-4.6,0.64-6.97c-0.18-1.45-1.14-2.36-2.61-2.4
				c-1.95-0.05-3.8,0.37-5.51,1.34c-2.71,1.53-5.25,3.31-7.61,5.32c-2.78,2.36-5.49,4.8-7.96,7.48c-2.5,2.7-5.1,5.31-7.51,8.09
				c-2.14,2.46-4.29,4.92-6.37,7.43c-2.24,2.7-4.46,5.42-6.73,8.09c-0.57,0.67-1.12,1.37-1.67,2.07c-0.52,0.64-0.76,1.38-0.74,2.2
				C128.82,50.59,128.81,51.01,128.81,51.42z M218.89,28.71c0.47-0.03,0.68-0.42,0.97-0.7c0.99-0.96,2.01-1.88,2.95-2.89
				c1.41-1.52,2.81-3.05,4.08-4.69c0.56-0.73,1.17-1.43,1.59-2.26c0.13-0.25,0.38-0.6,0.09-0.81c-0.25-0.18-0.57,0.06-0.81,0.25
				c-0.56,0.45-1.11,0.92-1.57,1.46c-2.54,2.96-5.03,5.96-7.17,9.23C218.93,28.43,218.82,28.54,218.89,28.71z M198.99,37.66
				c-0.76-0.09-2.61,0.13-3.4,0.4c-1.95,0.67-3.64,1.74-5.11,3.18c-0.16,0.16-0.21,0.35-0.29,0.54c-0.07,0.14,0.04,0.21,0.16,0.22
				c0.11,0.01,0.23,0.01,0.34-0.01c0.72-0.15,1.45-0.29,2.12-0.61c0.99-0.47,2.02-0.88,2.95-1.46
				C196.84,39.23,197.98,38.62,198.99,37.66z M234.64,38.93c1.01,0.04,1.97-0.15,2.92-0.37c0.79-0.18,1.53-0.53,2.25-0.91
				c0.32-0.17,0.59-0.41,0.82-0.69c0.11-0.13,0.2-0.29,0.11-0.46c-0.08-0.15-0.25-0.17-0.4-0.16c-0.21,0.01-0.42,0.02-0.62,0.05
				c-1.73,0.29-3.23,1.13-4.74,1.94C234.77,38.45,234.61,38.6,234.64,38.93z"/>
			<path class="st1" d="M41.57,77.54c-0.12-0.17-0.07-0.31-0.01-0.44c0.64-1.46,1.22-2.95,1.94-4.39c1.64-3.29,3.49-6.46,5.45-9.57
				c2.03-3.24,4.08-6.47,6.19-9.66c1.78-2.69,3.64-5.32,5.53-7.93c1.35-1.86,2.67-3.74,4.15-5.51c0.45-0.53,0.84-1.11,1.26-1.67
				c0.11-0.14,0.19-0.29,0.03-0.45c-0.14-0.14-0.28-0.08-0.41,0c-0.2,0.11-0.39,0.23-0.57,0.36c-1.34,0.99-2.65,2.01-4.01,2.97
				c-1.73,1.22-3.43,2.48-5.33,3.44c-1.21,0.62-2.44,1.22-3.78,1.53c-0.83,0.19-1.67,0.37-2.53,0.28c-1.3-0.14-2.29-0.74-2.84-1.96
				c-0.28-0.62-0.44-1.28-0.46-1.96c-0.05-1.87,0.12-3.71,0.56-5.53c1.03-4.2,2.12-8.38,3.21-12.56c0.42-1.6,0.85-3.19,1.19-4.81
				c0.18-0.86,0.17-1.72,0.15-2.58c-0.01-0.27-0.13-0.35-0.39-0.36c-0.5-0.01-0.98,0.04-1.46,0.18c-0.73,0.22-1.43,0.49-2.1,0.86
				c-2.26,1.23-4.37,2.71-6.45,4.22c-1.97,1.44-3.9,2.93-5.84,4.4c-2.48,1.88-4.96,3.78-7.38,5.74c-2.02,1.64-3.99,3.35-6.08,4.92
				c-1.42,1.07-2.71,2.29-4.02,3.49c-1.23,1.12-2.46,2.23-3.78,3.24c-0.18,0.14-0.36,0.28-0.57,0.37c-0.18,0.07-0.34,0.05-0.47-0.08
				c-0.15-0.13-0.07-0.28-0.01-0.42c0.22-0.55,0.57-1.02,0.98-1.44c1.29-1.3,2.6-2.58,3.99-3.78c3.18-2.73,6.46-5.35,9.69-8.02
				c3.57-2.94,7.3-5.69,11.03-8.44c2.33-1.71,4.7-3.37,7.13-4.94c1.44-0.93,2.98-1.64,4.67-2.01c1.11-0.24,2.13,0.24,2.62,1.21
				c0.17,0.33,0.22,0.68,0.23,1.04c0.05,1.12-0.17,2.21-0.4,3.29c-0.42,1.89-0.97,3.75-1.47,5.62c-0.89,3.34-1.9,6.65-2.65,10.02
				c-0.45,2.03-0.88,4.08-0.73,6.19c0.03,0.38,0.08,0.75,0.21,1.1c0.27,0.77,0.9,1.2,1.7,1.26c1.38,0.11,2.62-0.34,3.82-0.92
				c2.19-1.05,4.25-2.31,6.21-3.75c2.42-1.78,4.8-3.61,7.09-5.56c1.4-1.19,2.68-2.49,3.99-3.77c3.53-3.44,6.93-7,10.37-10.53
				c0.45-0.46,0.91-0.9,1.42-1.29c0.39-0.3,0.82-0.54,1.28-0.72c0.29-0.11,0.42-0.01,0.45,0.29c0.01,0.17-0.05,0.33-0.11,0.49
				c-0.26,0.74-0.71,1.37-1.22,1.95c-0.84,0.97-1.68,1.94-2.55,2.88c-2.87,3.13-5.59,6.38-8.31,9.64c-2.27,2.72-4.43,5.54-6.58,8.35
				c-2.77,3.63-5.3,7.42-7.93,11.15c-1.3,1.85-2.53,3.75-3.77,5.64c-2.77,4.22-5.27,8.6-7.86,12.94c-0.86,1.44-1.75,2.86-2.82,4.16
				c-0.29,0.35-0.54,0.73-0.81,1.09C42.2,77.14,41.92,77.37,41.57,77.54z"/>
			<path class="st1" d="M96.35,42.07c0.04-0.84,0.03-0.86-0.76-0.5c-0.79,0.36-1.58,0.72-2.42,0.96c-1.02,0.29-2.05,0.38-3.09,0.24
				c-0.59-0.08-1.13-0.32-1.6-0.69c-0.43-0.34-0.7-0.79-0.78-1.33c-0.04-0.28-0.07-0.56-0.1-0.84c-0.03-0.2,0.02-0.44-0.2-0.55
				c-0.26-0.13-0.48,0.03-0.67,0.19c-0.64,0.54-1.33,0.99-2.01,1.48c-0.89,0.64-1.8,1.25-2.77,1.77c-0.54,0.29-1.12,0.45-1.73,0.49
				c-0.79,0.04-1.43-0.5-1.5-1.29c-0.03-0.28,0-0.56,0.07-0.84c0.23-0.97,0.68-1.83,1.26-2.63c0.44-0.61,0.91-1.2,1.38-1.8
				c0.3-0.39,0.65-0.73,1.06-1.02c0.43-0.31,0.64-0.34,0.87-0.16c0.31,0.25,0.44,0.77,0.25,1.13c-0.16,0.3-0.34,0.59-0.54,0.86
				c-0.42,0.58-0.86,1.15-1.29,1.72c-0.25,0.33-0.47,0.68-0.59,1.09c-0.04,0.13-0.07,0.27,0.06,0.36c0.11,0.08,0.22,0.01,0.32-0.04
				c0.62-0.25,1.16-0.63,1.68-1.04c1.54-1.22,3.08-2.44,4.63-3.65c0.27-0.21,0.54-0.42,0.82-0.6c0.45-0.28,0.93-0.41,1.47-0.3
				c0.52,0.11,0.73,0.42,0.62,0.93c-0.14,0.72-0.44,1.4-0.64,2.1c-0.13,0.47-0.3,0.93-0.35,1.42c-0.11,1.01,0.39,1.58,1.41,1.61
				c0.69,0.02,1.35-0.16,2.02-0.31c1-0.23,1.97-0.56,2.89-0.99c0.43-0.2,0.75-0.49,0.98-0.9c0.51-0.88,0.95-1.79,1.4-2.71
				c0.48-0.98,0.99-1.95,1.63-2.83c0.24-0.33,0.52-0.59,0.91-0.74c0.23-0.09,0.43-0.09,0.65,0.03c0.74,0.39,0.99,1.06,0.68,1.84
				c-0.11,0.28-0.27,0.54-0.43,0.79c-0.86,1.35-1.74,2.69-2.59,4.05c-0.47,0.75-0.87,1.54-1.04,2.43c-0.25,1.3,0.13,1.75,1.46,1.72
				c0.48-0.01,0.94-0.1,1.39-0.26c1.83-0.66,3.52-1.57,5.03-2.8c0.37-0.3,0.71-0.63,1.15-0.81c0.51-0.22,0.87-0.12,1.17,0.34
				c0.29,0.45,0.23,0.82-0.21,1.19c-0.17,0.14-0.36,0.28-0.56,0.39c-2.03,1.11-4.08,2.14-6.31,2.81c-1.13,0.34-2.25,0.37-3.41,0.08
				C96.71,44.1,96.3,43.02,96.35,42.07z"/>
			<path class="st1" d="M103.2,30.13c0.08-0.93,0.4-1.81,1.06-2.52c0.55-0.59,1.27-0.8,2.07-0.68c0.6,0.09,0.88,0.51,0.75,1.09
				c-0.07,0.32-0.22,0.6-0.43,0.85c-0.72,0.86-1.64,1.43-2.66,1.88C103.46,30.99,103.19,30.78,103.2,30.13z"/>
		</g>
	</g>
</g>
</svg>
